
<svg xmlns="http://www.w3.org/2000/svg" xml:space="preserve" width="35mm" height="15mm" version="1.1" style="shape-rendering:geometricPrecision; text-rendering:geometricPrecision; image-rendering:optimizeQuality; fill-rule:evenodd; clip-rule:evenodd"
viewBox="0 0 3500 1500"
 xmlns:xlink="http://www.w3.org/1999/xlink"
 xmlns:xodm="http://www.corel.com/coreldraw/odm/2003">
 <defs>
  <style type="text/css">
   <![CDATA[
    .fil1 {fill:#01B4BD;fill-rule:nonzero}
    .fil2 {fill:#2E3E53;fill-rule:nonzero}
    .fil0 {fill:#95AEBA;fill-rule:nonzero}
    .fil3 {fill:white;fill-rule:nonzero}
   ]]>
  </style>
 </defs>

  <metadata id="CorelCorpID_0Corel-Layer"/>
 
   <path class="fil0" d="M156.57 1156.59l33.39 0 0 257.89 -33.39 -0.01 0 -112.05c-4.95,3.21 -9.84,6.35 -14.66,9.45 -4.82,3.12 -10.03,5.82 -15.58,8.18 -5.58,2.35 -11.83,4.26 -18.73,5.74 -6.93,1.48 -15.11,2.22 -24.5,2.22 -13.86,0 -26.22,-2.06 -37.12,-6.14 -10.87,-4.07 -20.16,-9.84 -27.83,-17.25 -7.67,-7.41 -13.49,-16.19 -17.44,-26.35 -3.94,-10.13 -5.93,-21.27 -5.93,-33.39l0 -88.32 33.76 0 0 87.95c0,7.67 1.3,14.9 3.89,21.72 2.59,6.8 6.16,12.75 10.77,17.81 4.58,5.08 10.21,9.1 16.88,12.07 6.67,2.96 14.1,4.45 22.28,4.45 12.86,0 25.4,-2.41 37.65,-7.22 12.25,-4.84 24.42,-12.57 36.57,-23.18l-0.01 -113.57z"/>
   <polygon class="fil0" points="356.94,1414.47 356.94,1274.21 269.76,1414.47 234.88,1414.47 234.88,1232.28 266.79,1223.02 266.79,1370.31 354.37,1227.46 388.87,1227.47 388.87,1414.48 "/>
   <path class="fil0" d="M515.37 1223.02c11.14,0 22.15,1.98 33.05,5.93 10.87,3.94 20.27,9.9 28.18,17.81l-19.66 19.29c-5.45,-4.68 -11.46,-8.47 -17.99,-11.3 -6.56,-2.83 -14.9,-4.26 -25.06,-4.26 -8.41,0 -16.19,1.43 -23.36,4.26 -7.2,2.83 -13.36,7.12 -18.55,12.81 -5.45,5.93 -9.53,13.1 -12.25,21.51 -2.73,8.41 -4.07,16.93 -4.07,25.61l0 5.93c0,10.87 1.48,21.33 4.45,31.35 2.96,10 7.94,18.36 14.84,25.06 4.71,4.45 10.21,7.96 16.51,10.56 6.32,2.59 13.78,3.89 22.46,3.89 7.41,0 15.27,-1.24 23.57,-3.7 8.28,-2.46 14.9,-6.67 19.84,-12.59l19.69 18.92c-8.18,8.68 -17.75,14.98 -28.76,18.92 -11.01,3.94 -22.46,5.95 -34.32,5.95 -9.9,0 -20.21,-1.48 -30.98,-4.45 -10.77,-2.96 -20.11,-7.67 -28.02,-14.1 -6.67,-5.42 -12.2,-11.69 -16.51,-18.73 -4.34,-7.04 -7.49,-15.27 -9.47,-24.69 -1.24,-5.93 -2.04,-11.88 -2.41,-17.81 -0.37,-5.93 -0.56,-11.88 -0.56,-17.81l0 -7.04c0,-5.93 0.19,-11.62 0.56,-17.07 0.37,-5.42 1.24,-10.72 2.59,-15.77 1.35,-5.05 3.36,-10.13 5.95,-15.21 2.59,-5.08 6.24,-10.32 10.95,-15.77 3.94,-4.71 8.65,-8.78 14.08,-12.25 5.45,-3.47 11.27,-6.32 17.46,-8.52 6.16,-2.22 12.54,-3.89 19.1,-5 6.49,-1.2 12.76,-1.73 18.69,-1.73z"/>
   <polygon class="fil0" points="688.64,1253.42 688.64,1414.45 656.74,1414.45 656.74,1253.42 596.25,1253.42 596.25,1227.44 748.76,1227.44 740.58,1253.42 "/>
   <path class="fil0" d="M919.81 1392.2c-8.68,9.15 -18.44,15.9 -29.32,20.24 -10.87,4.31 -22.62,6.48 -35.24,6.48 -12.12,0 -23.73,-2.22 -34.87,-6.69 -11.14,-4.45 -21.03,-11.14 -29.69,-20.03 -9.42,-9.39 -15.53,-20.27 -18.36,-32.65 -2.86,-12.38 -4.26,-25.24 -4.26,-38.6l0 -7.04c0.24,-12.86 1.85,-24.37 4.84,-34.53 2.96,-10.13 9.26,-20.27 18.92,-30.43 8.65,-8.92 18.31,-15.45 28.95,-19.69 10.64,-4.21 22.15,-6.3 34.5,-6.3 12.35,0 23.81,2.04 34.34,6.11 10.5,4.07 20.11,10.45 28.76,19.1 8.92,9.15 15.35,19.05 19.29,29.69 3.94,10.64 5.93,22.38 5.93,35.24l0 7.78c0,13.34 -1.48,25.98 -4.45,37.84 -3.01,11.97 -9.44,23.11 -19.34,33.48zm-5.95 -71.23l0 -7.43c0,-18.04 -4.68,-32.78 -14.08,-44.13 -4.95,-5.95 -11.14,-10.58 -18.55,-13.92 -7.43,-3.33 -15.95,-5 -25.61,-5 -9.42,0 -17.7,1.56 -24.87,4.63 -7.17,3.1 -13.23,7.49 -18.18,13.18 -9.9,11.38 -14.84,26.59 -14.84,45.64l0 8.52c0,10.4 1.11,20.03 3.33,28.95 2.22,8.92 6.06,16.59 11.51,23.02 4.45,5.42 10.21,9.66 17.25,12.59 7.04,2.96 15.64,4.45 25.8,4.45 9.39,0 17.44,-1.35 24.1,-4.07 6.69,-2.73 12.36,-6.56 17.07,-11.51 6.43,-6.43 10.87,-14.47 13.36,-24.13 2.46,-9.65 3.71,-19.91 3.71,-30.79z"/>
   <polygon class="fil0" points="1055.6,1253.42 1055.6,1414.45 1023.69,1414.45 1023.69,1253.42 963.23,1253.42 963.23,1227.44 1115.74,1227.44 1107.56,1253.42 "/>
   <path class="fil0" d="M1219.45 1223.02c10.35,0 20.03,1.48 29.02,4.45 9.02,2.96 16.91,7.3 23.68,12.99 6.77,5.69 12.14,12.75 16.09,21.14 3.94,8.41 5.93,18.2 5.93,29.32l0 80.88c0,8.65 0.79,16.09 2.41,22.25 1.59,6.19 4.39,12.99 8.36,20.43l-34.13 -0.01c-1.98,-2.73 -3.55,-6.19 -4.63,-10.4 -1.11,-4.21 -1.8,-8.04 -2.06,-11.51 -10.13,7.41 -21.33,13.65 -33.58,18.73 -12.25,5.05 -24.66,7.62 -37.28,7.62 -8.41,0 -16.27,-1.38 -23.55,-4.1 -7.3,-2.73 -13.68,-6.64 -19.1,-11.72 -5.42,-5.08 -9.71,-11.17 -12.81,-18.23 -3.1,-7.09 -4.63,-14.98 -4.63,-23.65 0,-8.18 1.61,-15.69 4.84,-22.52 3.2,-6.83 7.54,-12.7 12.99,-17.67 5.42,-4.97 11.75,-8.81 18.92,-11.54 7.17,-2.73 14.71,-4.1 22.62,-4.1l69.77 0.01 0 -16.83c0,-13.18 -4.02,-22.75 -12.01,-28.73 -8.02,-5.98 -18.31,-9.1 -30.85,-9.34 -11.35,0 -21.09,1.35 -29.21,4.07 -8.12,2.73 -17.01,6.93 -26.62,12.62l-13.73 -23.84c5.93,-3.52 11.54,-6.51 16.85,-9.02 5.32,-2.51 10.74,-4.63 16.3,-6.38 5.53,-1.77 11.27,-3.02 17.22,-3.78 5.88,-0.79 12.29,-1.14 19.19,-1.14zm-21.85 168.44c4.45,0 9.55,-0.93 15.35,-2.78 5.79,-1.85 11.69,-4.21 17.75,-7.06 6.03,-2.83 11.83,-5.74 17.38,-8.73 5.53,-2.96 10.29,-5.56 14.23,-7.78l0 -32.28 -69.1 -0.01c-3.94,0 -7.65,0.79 -11.09,2.41 -3.47,1.61 -6.43,3.7 -8.89,6.32 -2.46,2.59 -4.45,5.69 -5.93,9.26 -1.48,3.6 -2.2,7.22 -2.2,10.95 0,4.45 0.93,8.47 2.75,12.07 1.85,3.57 4.31,6.67 7.41,9.26 3.07,2.59 6.51,4.63 10.35,6.14 3.79,1.49 7.81,2.23 11.99,2.23z"/>
   <path class="fil0" d="M1578.41 1312.05c9.66,5.69 16.43,12.36 20.4,20.03 3.94,7.67 5.93,15.72 5.93,24.1l0 1.51c0,9.39 -1.91,17.62 -5.74,24.66 -3.84,7.04 -8.92,12.91 -15.21,17.62 -6.32,4.71 -13.49,8.28 -21.51,10.77 -8.04,2.49 -16.27,3.7 -24.69,3.7l-84.96 0.01 0 -187.01 83.48 0c7.67,0 15.16,1.01 22.46,2.96 7.3,1.98 13.78,5 19.47,9.1 5.69,4.1 10.21,9.23 13.55,15.4 3.33,6.19 5,13.6 5,22.28 0,7.17 -1.8,13.6 -5.37,19.29 -3.6,5.69 -7.86,10.9 -12.81,15.58zm-43.79 -11.5c3.47,0 6.99,-0.42 10.56,-1.3 3.6,-0.87 6.8,-2.22 9.66,-4.07 2.83,-1.85 5.19,-4.26 7.04,-7.25 1.85,-2.96 2.8,-6.56 2.8,-10.74 0,-4.21 -0.87,-7.86 -2.62,-10.95 -1.72,-3.1 -3.97,-5.58 -6.67,-7.43 -2.73,-1.85 -5.82,-3.23 -9.26,-4.07 -3.47,-0.85 -6.93,-1.3 -10.4,-1.3l-51.22 -0.02 0 47.12 50.11 0 0 0.01zm-50.08 26.35l0 60.11 53.81 0c3.97,0 8.04,-0.61 12.25,-1.85 4.21,-1.24 7.91,-3.02 11.14,-5.37 3.23,-2.35 5.87,-5.37 7.96,-9.1 2.09,-3.7 3.15,-8.04 3.15,-12.99l0 -1.51c0,-4.21 -0.98,-8.1 -2.96,-11.69 -1.98,-3.57 -4.58,-6.67 -7.81,-9.26 -3.23,-2.59 -6.8,-4.63 -10.74,-6.14 -3.94,-1.48 -7.94,-2.22 -11.88,-2.22l-54.92 -0.01 0 0.03z"/>
   <path class="fil0" d="M1632.2 1456.01l0 -69c10.87,0 19.42,-3.52 25.59,-10.56 6.19,-7.06 10.77,-16.01 13.73,-26.91 2.96,-10.87 4.82,-23.02 5.56,-36.35 0.74,-13.36 1.11,-26.35 1.11,-38.97l0 -46.75 128 0 0 159.54 20.77 0 0 69 -26.35 0 0 -41.54 -141.74 0 0 41.54 -26.67 0zm55.67 -69l88.69 0 0 -133.56 -68.66 0 0 20.77c0,15.85 -0.32,29.55 -0.93,41.2 -0.61,11.62 -1.75,21.78 -3.36,30.43 -1.59,8.68 -3.7,16.27 -6.3,22.83 -2.6,6.56 -5.74,12.64 -9.44,18.33z"/>
   <path class="fil0" d="M1992.88 1312.05c9.66,5.69 16.43,12.36 20.4,20.03 3.94,7.67 5.93,15.72 5.93,24.1l0 1.51c0,9.39 -1.91,17.62 -5.74,24.66 -3.84,7.04 -8.92,12.91 -15.21,17.62 -6.32,4.71 -13.49,8.28 -21.51,10.77 -8.04,2.49 -16.27,3.7 -24.69,3.7l-84.96 0.01 0 -187.01 83.48 0c7.67,0 15.16,1.01 22.46,2.96 7.3,1.98 13.78,5 19.47,9.1 5.69,4.1 10.21,9.23 13.55,15.4 3.33,6.19 5,13.6 5,22.28 0,7.17 -1.8,13.6 -5.37,19.29 -3.6,5.69 -7.89,10.9 -12.81,15.58zm-43.79 -11.5c3.47,0 6.99,-0.42 10.56,-1.3 3.6,-0.87 6.8,-2.22 9.66,-4.07 2.83,-1.85 5.19,-4.26 7.04,-7.25 1.85,-2.96 2.8,-6.56 2.8,-10.74 0,-4.21 -0.87,-7.86 -2.62,-10.95 -1.72,-3.1 -3.97,-5.58 -6.67,-7.43 -2.7,-1.85 -5.82,-3.23 -9.26,-4.07 -3.47,-0.85 -6.93,-1.3 -10.4,-1.3l-51.22 -0.02 0 47.12 50.11 0 0 0.01zm-50.08 26.35l0 60.11 53.81 0c3.97,0 8.04,-0.61 12.25,-1.85 4.21,-1.24 7.91,-3.02 11.14,-5.37 3.23,-2.35 5.87,-5.37 7.96,-9.1 2.09,-3.7 3.15,-8.04 3.15,-12.99l0 -1.51c0,-4.21 -0.98,-8.1 -2.96,-11.69 -1.98,-3.57 -4.58,-6.67 -7.81,-9.26 -3.23,-2.59 -6.8,-4.63 -10.74,-6.14 -3.97,-1.48 -7.94,-2.22 -11.88,-2.22l-54.92 -0.01 0 0.03z"/>
   <path class="fil0" d="M2200.66 1392.2c-8.68,9.15 -18.44,15.9 -29.32,20.24 -10.87,4.31 -22.62,6.48 -35.24,6.48 -12.12,0 -23.73,-2.22 -34.87,-6.69 -11.14,-4.45 -21.03,-11.14 -29.69,-20.03 -9.42,-9.39 -15.53,-20.27 -18.36,-32.65 -2.86,-12.38 -4.26,-25.24 -4.26,-38.6l0 -7.04c0.24,-12.86 1.85,-24.37 4.84,-34.53 2.96,-10.13 9.26,-20.27 18.92,-30.43 8.65,-8.92 18.31,-15.45 28.95,-19.69 10.64,-4.21 22.15,-6.3 34.5,-6.3 12.36,0 23.81,2.04 34.34,6.11 10.5,4.07 20.11,10.45 28.73,19.1 8.92,9.15 15.35,19.05 19.29,29.69 3.97,10.64 5.93,22.38 5.93,35.24l0 7.78c0,13.34 -1.48,25.98 -4.45,37.84 -2.99,11.97 -9.42,23.11 -19.31,33.48zm-5.95 -71.23l0 -7.43c0,-18.04 -4.68,-32.78 -14.08,-44.13 -4.95,-5.95 -11.14,-10.58 -18.55,-13.92 -7.43,-3.33 -15.95,-5 -25.61,-5 -9.42,0 -17.7,1.56 -24.87,4.63 -7.17,3.1 -13.23,7.49 -18.18,13.18 -9.9,11.38 -14.84,26.59 -14.84,45.64l0 8.52c0,10.4 1.11,20.03 3.33,28.95 2.22,8.92 6.06,16.59 11.51,23.02 4.45,5.42 10.21,9.66 17.25,12.59 7.04,2.96 15.64,4.45 25.8,4.45 9.39,0 17.44,-1.35 24.1,-4.07 6.69,-2.73 12.36,-6.56 17.07,-11.51 6.43,-6.43 10.87,-14.47 13.36,-24.13 2.46,-9.65 3.71,-19.91 3.71,-30.79z"/>
   <path class="fil0" d="M2381 1414.47l0 -140.26 -87.21 140.26 -34.9 0 0 -182.19 31.91 -9.26 0 147.29 87.58 -142.85 34.5 0.01 0 187.01 -31.88 -0.01zm-40.83 -217.06c-6.93,0 -13.49,-0.98 -19.66,-2.96 -6.19,-1.98 -11.64,-4.87 -16.32,-8.7 -4.68,-3.84 -8.41,-8.6 -11.14,-14.29 -2.73,-5.69 -4.07,-12.12 -4.07,-19.29l18.91 0c0,4.21 0.93,7.78 2.78,10.74 1.85,2.96 4.34,5.45 7.43,7.43 3.1,1.98 6.56,3.47 10.4,4.45 3.84,0.98 7.73,1.48 11.69,1.48 3.7,0 7.49,-0.42 11.32,-1.3 3.84,-0.87 7.3,-2.28 10.4,-4.29 3.1,-1.98 5.61,-4.5 7.62,-7.59 1.98,-3.1 2.96,-6.75 2.96,-10.95l18.96 0c0,7.41 -1.43,13.92 -4.29,19.47 -2.83,5.56 -6.61,10.27 -11.3,14.1 -4.71,3.84 -10.13,6.72 -16.32,8.7 -6.27,2.02 -12.7,3 -19.37,3z"/>
   <polygon class="fil0" points="2594.36,1223.02 2594.36,1414.47 2562.45,1414.47 2562.45,1326.89 2474.87,1326.9 2474.87,1414.48 2442.96,1414.47 2442.96,1231.91 2474.87,1223.02 2474.87,1300.57 2562.45,1300.57 2562.45,1231.91 "/>
   <path class="fil0" d="M2664.1 1329.12c0,21.78 5,37.62 15.03,47.49 10.03,9.9 25.16,14.84 45.46,14.84 9.9,0 18.31,-2.04 25.24,-6.11 6.93,-4.1 13.1,-9.71 18.55,-16.91l28.2 11.51c-7.2,12.12 -17.2,21.64 -30.06,28.58 -12.86,6.91 -27.44,10.4 -43.79,10.4 -16.59,0 -30.61,-2.3 -42.1,-6.88 -11.51,-4.58 -20.85,-11.01 -28.02,-19.29 -7.17,-8.28 -12.36,-18.31 -15.58,-30.06 -3.23,-11.75 -4.82,-24.79 -4.82,-39.13l0 -4.1c0,-6.16 0.13,-12.17 0.37,-17.99 0.24,-5.79 0.98,-11.56 2.22,-17.25 1.22,-5.69 3.2,-11.32 5.93,-16.91 2.73,-5.56 6.56,-11.06 11.51,-16.51 8.41,-9.42 18.42,-16.38 30.06,-20.98 11.62,-4.58 23.63,-6.85 35.98,-6.85 13.86,0 26.17,2.22 36.94,6.67 10.74,4.45 19.79,10.64 27.09,18.55 7.3,7.91 12.78,17.33 16.51,28.18 3.7,10.9 5.58,22.89 5.58,35.98l0 16.7 -140.3 -0.01 0 0.08zm0 -25.96l108.35 0 0 -3.36c0,-6.19 -1.24,-12.25 -3.7,-18.18 -2.49,-5.95 -6.06,-11.19 -10.77,-15.77 -4.71,-4.58 -10.4,-8.28 -17.07,-11.14 -6.67,-2.83 -14.23,-4.26 -22.62,-4.26 -7.91,0 -15.21,1.35 -21.88,4.07 -6.67,2.73 -12.44,6.38 -17.25,10.95 -4.82,4.58 -8.52,9.84 -11.14,15.77 -2.59,5.93 -3.89,12.12 -3.89,18.55l0 3.37 -0.03 0z"/>
 
   <circle class="fil1" cx="1337.76" cy="572.99" r="443.89"/>

   <circle class="fil1" cx="2563.5" cy="608.58" r="381.08"/>
 
   <circle class="fil1" cx="2081.69" cy="595.59" r="541.86"/>
  
   <circle class="fil1" cx="3022.84" cy="639.22" r="411.72"/>
 
  <path class="fil2" d="M8.57 167.5l302.32 0c125.05,0 224.43,40.45 298.15,121.29 73.69,80.87 110.53,179.05 110.53,294.53 0,116.32 -36.64,215.29 -109.93,296.92 -73.28,81.66 -172.86,122.47 -298.75,122.47l-302.32 0.02 0 -835.23zm138.59 708.57l161.3 0c83.65,0 149.95,-28.08 198.94,-84.24 48.99,-56.18 73.48,-125.26 73.48,-207.33 0,-82.01 -24.49,-151.14 -73.48,-207.32 -48.99,-56.18 -114.94,-84.24 -197.75,-84.24l-162.49 0 0 583.13z"/>
  <path class="fil3" d="M1062.09 585.53c0,-87.07 27.49,-156.47 82.42,-208.25 54.95,-51.75 121.97,-77.63 201.08,-77.63 37.68,0 73.37,6.64 107.1,19.9 33.71,13.28 63.84,34.24 90.38,62.92 26.54,28.65 44.61,63.18 54.16,103.53l-89.18 0c-27.09,-66.89 -81.52,-100.86 -163.25,-101.92 -56.81,0 -102.61,18.71 -137.37,56.14 -34.76,37.43 -52.18,85.88 -52.18,145.34 0,56.28 17.65,103.53 52.97,141.74 35.3,38.23 80.83,57.34 136.58,57.34 39.29,0 73.66,-9.55 103.11,-28.65 29.47,-19.1 50.3,-46.73 62.52,-82.81l89.98 -0.02c-13.28,64.24 -43.95,112.95 -91.97,146.13 -48.05,33.18 -102.61,49.77 -163.64,49.77 -79.11,0 -146.02,-25.61 -200.69,-76.84 -54.69,-51.27 -82.02,-120.17 -82.02,-206.69z"/>
  <path class="fil3" d="M1683.23 280.52l86.01 0 0 445.16c0,32.39 5.69,54.03 17.12,64.9 11.4,10.87 33.31,13.68 65.7,8.36l3.18 66.89c-61.07,10.08 -104.99,4.89 -131.79,-15.53 -26.8,-20.43 -40.22,-61.73 -40.22,-123.83l0 -445.95z"/>
  <path class="fil3" d="M2091.77 470.84c66.36,0 114.41,19.9 144.15,59.72 29.74,39.82 38.23,92.1 25.48,156.87l-283.51 0c0,33.97 11.8,61.07 35.43,81.23 23.63,20.19 53.5,30.27 89.59,30.27 50.96,2.67 97.42,-5.29 139.38,-23.89l11.14 64.51c-48.84,21.78 -97.16,32.65 -144.94,32.65 -64.27,1.08 -116.81,-17.52 -157.69,-55.75 -40.88,-38.23 -60.25,-89.19 -58.13,-152.9 1.06,-61.04 20.69,-108.43 58.92,-142.16 38.24,-33.67 84.96,-50.55 140.18,-50.55zm-0.79 66.91c-62.65,0 -99.8,29.47 -111.5,88.4l211.83 0c1.06,-27.6 -8.1,-49.24 -27.49,-64.9 -19.37,-15.67 -43.63,-23.5 -72.84,-23.5z"/>
  <path class="fil3" d="M2604.61 798.95c-12.22,23.89 -31.33,41.8 -57.34,53.76 -26.04,11.93 -53.9,17.91 -83.63,17.91 -37.15,0 -69.43,-10.87 -96.76,-32.65 -27.36,-21.75 -41.01,-50.69 -41.01,-86.81 -1.08,-44.05 12.36,-77.63 40.22,-100.75 27.86,-23.1 64.11,-34.63 108.72,-34.63 41.94,0 79.9,9.55 113.88,28.68l0 -38.23c0,-23.36 -9.15,-40.88 -27.46,-52.57 -18.34,-11.67 -40.11,-17.25 -65.33,-16.72 -25.21,0.53 -49.5,3.18 -72.87,7.96 -23.36,4.79 -41.7,10.61 -54.95,17.52l-12.75 -62.12c39.29,-20.16 86.52,-30.27 141.76,-30.27 52.02,0 94.35,10.74 127,32.25 32.65,21.51 48.97,56.94 48.97,106.31l0 151.32c0,12.22 0.13,20.58 0.4,25.08 0.26,4.52 1.59,10.08 3.97,16.72 2.41,6.67 6.38,10.77 11.96,12.36 5.58,1.59 13.39,1.88 23.5,0.79l1.59 49.37c-20.69,3.18 -39.03,4.76 -54.95,4.76 -15.93,0 -28.95,-5.69 -39.03,-17.12 -10.04,-11.36 -15.36,-29.03 -15.89,-52.92zm-15.93 -66.89l0 -31.86c-31.33,-18.57 -64.51,-27.33 -99.54,-26.27 -22.3,0.53 -40.88,7.17 -55.75,19.92 -14.87,12.73 -22.3,30.27 -22.3,52.55 0,18.04 6.91,31.86 20.69,41.41 13.81,9.55 30.27,14.34 49.4,14.34 25.48,0 48.68,-5.98 69.66,-17.91 20.99,-11.96 33.58,-29.35 37.84,-52.18z"/>
  <path class="fil3" d="M3167.65 863.45l-87.61 0 0 -225.37c0.53,-29.18 -7.7,-52.55 -24.69,-70.09 -17.01,-17.52 -38.76,-26.54 -65.3,-27.07 -27.62,0 -50.72,9.68 -69.29,29.08 -18.57,19.39 -27.86,44.48 -27.86,75.25l0 218.2 -87.6 0 0 -272.36c0,-24.42 -2.12,-40.08 -6.38,-46.99 -4.26,-6.88 -15.66,-9.82 -34.24,-8.76l0 -56.54c19.63,-2.65 38.34,-4.5 56.14,-5.58 17.78,-1.06 32.91,3.86 45.4,14.74 12.46,10.87 18.71,27.75 18.71,50.56 10.08,-22.83 27.33,-39.69 51.78,-50.56 24.42,-10.87 50.69,-16.32 78.85,-16.32 49.87,0 87.71,15.27 113.48,45.77 25.74,30.53 38.63,70.75 38.63,120.65l0 225.39 -0.02 0z"/>

   <circle class="fil1" cx="3395.85" cy="220.99" r="98.08"/>
 
   <path class="fil3" d="M2210.94 272.82c-5.93,0 -11.88,-2.28 -16.4,-6.8 -106.07,-106.1 -211.48,-4.34 -215.93,0.05 -9.1,9 -23.76,8.94 -32.78,-0.11 -9.02,-9.08 -9.02,-23.68 0.03,-32.73 1.43,-1.43 35.53,-35.16 86.76,-52.23 48.74,-16.25 122.08,-20.37 194.68,52.23 9.05,9.05 9.05,23.73 0,32.78 -4.51,4.57 -10.43,6.81 -16.36,6.81z"/>

</svg>
