<?xml version="1.0" encoding="utf-8"?>
<!-- Generator: Adobe Illustrator 17.0.0, SVG Export Plug-In . SVG Version: 6.00 Build 0)  -->
<!DOCTYPE svg PUBLIC "-//W3C//DTD SVG 1.1//EN" "http://www.w3.org/Graphics/SVG/1.1/DTD/svg11.dtd">
<svg version="1.1" id="Layer_1" xmlns="http://www.w3.org/2000/svg" xmlns:xlink="http://www.w3.org/1999/xlink" x="0px" y="0px"
	 width="200px" height="55px" viewBox="0 0 200 55" enable-background="new 0 0 200 55" xml:space="preserve">
<g>
	<path fill="#95AEBA" d="M7.242,42.867h1.262v9.747H7.242v-4.235C7.055,48.5,6.87,48.619,6.688,48.736
		c-0.182,0.118-0.379,0.22-0.589,0.309c-0.211,0.089-0.447,0.161-0.708,0.217c-0.262,0.056-0.571,0.084-0.926,0.084
		c-0.524,0-0.991-0.078-1.403-0.232c-0.411-0.154-0.762-0.372-1.052-0.652c-0.29-0.28-0.51-0.612-0.659-0.996
		c-0.149-0.383-0.224-0.804-0.224-1.262v-3.338h1.276v3.324c0,0.29,0.049,0.563,0.147,0.821c0.098,0.257,0.233,0.482,0.407,0.673
		c0.173,0.192,0.386,0.344,0.638,0.456c0.252,0.112,0.533,0.168,0.842,0.168c0.486,0,0.96-0.091,1.423-0.273
		c0.463-0.183,0.923-0.475,1.382-0.876V42.867z"/>
	<path fill="#95AEBA" d="M14.815,52.614v-5.301l-3.295,5.301h-1.318v-6.886l1.206-0.35v5.567l3.31-5.399h1.304v7.068H14.815z"/>
	<path fill="#95AEBA" d="M20.803,45.378c0.421,0,0.837,0.075,1.249,0.224c0.411,0.149,0.766,0.374,1.065,0.673l-0.743,0.729
		c-0.206-0.177-0.433-0.32-0.68-0.427c-0.248-0.107-0.563-0.161-0.947-0.161c-0.318,0-0.612,0.054-0.883,0.161
		c-0.272,0.107-0.505,0.269-0.701,0.484c-0.206,0.224-0.36,0.495-0.463,0.813c-0.103,0.318-0.154,0.64-0.154,0.968v0.224
		c0,0.411,0.056,0.806,0.168,1.185c0.112,0.378,0.3,0.694,0.561,0.947c0.178,0.168,0.386,0.301,0.624,0.399
		c0.239,0.098,0.521,0.147,0.849,0.147c0.28,0,0.577-0.047,0.891-0.14c0.313-0.093,0.563-0.252,0.75-0.476l0.744,0.715
		c-0.309,0.328-0.671,0.566-1.087,0.715c-0.416,0.149-0.849,0.225-1.297,0.225c-0.374,0-0.764-0.056-1.171-0.168
		c-0.407-0.112-0.76-0.29-1.059-0.533c-0.252-0.205-0.461-0.442-0.624-0.708c-0.164-0.266-0.283-0.577-0.358-0.933
		c-0.047-0.224-0.077-0.449-0.091-0.673c-0.014-0.224-0.021-0.449-0.021-0.673v-0.266c0-0.224,0.007-0.439,0.021-0.645
		c0.014-0.205,0.047-0.405,0.098-0.596c0.051-0.191,0.127-0.383,0.225-0.575c0.098-0.192,0.236-0.39,0.414-0.596
		c0.149-0.178,0.327-0.332,0.532-0.463c0.206-0.131,0.426-0.239,0.66-0.322c0.233-0.084,0.474-0.147,0.722-0.189
		C20.342,45.398,20.579,45.378,20.803,45.378z"/>
	<path fill="#95AEBA" d="M27.352,46.527v6.086h-1.206v-6.086H23.86v-0.982h5.764l-0.309,0.982H27.352z"/>
	<path fill="#95AEBA" d="M36.089,51.772c-0.328,0.346-0.697,0.601-1.108,0.765c-0.411,0.163-0.855,0.245-1.332,0.245
		c-0.458,0-0.897-0.084-1.318-0.253c-0.421-0.168-0.795-0.421-1.122-0.757c-0.356-0.355-0.587-0.766-0.694-1.234
		c-0.108-0.468-0.161-0.954-0.161-1.459v-0.266c0.009-0.486,0.07-0.921,0.183-1.305c0.112-0.383,0.35-0.766,0.715-1.15
		c0.327-0.337,0.692-0.584,1.094-0.744c0.402-0.159,0.837-0.238,1.304-0.238s0.9,0.077,1.298,0.231
		c0.397,0.154,0.76,0.395,1.087,0.722c0.337,0.346,0.58,0.72,0.729,1.122c0.149,0.402,0.224,0.846,0.224,1.332v0.294
		c0,0.504-0.056,0.982-0.168,1.43C36.706,50.959,36.463,51.38,36.089,51.772z M35.864,49.08v-0.281c0-0.682-0.177-1.239-0.532-1.668
		c-0.187-0.225-0.421-0.4-0.701-0.526c-0.281-0.126-0.603-0.189-0.968-0.189c-0.356,0-0.669,0.059-0.94,0.175
		c-0.271,0.117-0.5,0.283-0.687,0.498c-0.374,0.43-0.561,1.005-0.561,1.725v0.322c0,0.393,0.042,0.757,0.126,1.094
		c0.084,0.337,0.229,0.627,0.435,0.87c0.168,0.205,0.386,0.365,0.652,0.476c0.266,0.112,0.591,0.168,0.975,0.168
		c0.355,0,0.659-0.051,0.911-0.154c0.253-0.103,0.467-0.248,0.645-0.435c0.243-0.243,0.411-0.547,0.505-0.912
		C35.817,49.879,35.864,49.491,35.864,49.08z"/>
	<path fill="#95AEBA" d="M41.221,46.527v6.086h-1.206v-6.086H37.73v-0.982h5.764l-0.309,0.982H41.221z"/>
	<path fill="#95AEBA" d="M47.414,45.378c0.391,0,0.757,0.056,1.097,0.168c0.341,0.112,0.639,0.276,0.895,0.491
		c0.256,0.215,0.459,0.482,0.608,0.799c0.149,0.318,0.224,0.688,0.224,1.108v3.057c0,0.327,0.03,0.608,0.091,0.841
		c0.06,0.234,0.166,0.491,0.316,0.772h-1.29c-0.075-0.103-0.134-0.234-0.175-0.393c-0.042-0.159-0.068-0.304-0.078-0.435
		c-0.383,0.28-0.806,0.516-1.269,0.708c-0.463,0.191-0.932,0.288-1.409,0.288c-0.318,0-0.615-0.052-0.89-0.155
		c-0.276-0.103-0.517-0.251-0.722-0.443c-0.205-0.192-0.367-0.422-0.484-0.689c-0.117-0.268-0.175-0.566-0.175-0.894
		c0-0.309,0.061-0.593,0.183-0.851c0.121-0.258,0.285-0.48,0.491-0.668c0.205-0.188,0.444-0.333,0.715-0.436
		c0.271-0.103,0.556-0.155,0.855-0.155h2.637v-0.636c0-0.498-0.152-0.86-0.454-1.086c-0.303-0.226-0.692-0.344-1.166-0.353
		c-0.429,0-0.797,0.051-1.104,0.154c-0.307,0.103-0.643,0.262-1.006,0.477l-0.519-0.901c0.224-0.133,0.436-0.246,0.637-0.341
		c0.201-0.095,0.406-0.175,0.616-0.241c0.209-0.067,0.426-0.114,0.651-0.143C46.911,45.391,47.153,45.378,47.414,45.378z
		 M46.588,51.744c0.168,0,0.361-0.035,0.58-0.105c0.219-0.07,0.442-0.159,0.671-0.267c0.228-0.107,0.447-0.217,0.657-0.33
		c0.209-0.112,0.389-0.21,0.538-0.294v-1.22h-2.612c-0.149,0-0.289,0.03-0.419,0.091c-0.131,0.061-0.243,0.14-0.336,0.239
		c-0.093,0.098-0.168,0.215-0.224,0.35c-0.056,0.136-0.083,0.273-0.083,0.414c0,0.168,0.035,0.32,0.104,0.456
		c0.07,0.135,0.163,0.252,0.28,0.35c0.116,0.098,0.246,0.175,0.391,0.232C46.278,51.716,46.43,51.744,46.588,51.744z"/>
	<path fill="#95AEBA" d="M60.981,48.743c0.365,0.215,0.621,0.467,0.771,0.757c0.149,0.29,0.224,0.594,0.224,0.911v0.057
		c0,0.355-0.072,0.666-0.217,0.932c-0.145,0.266-0.337,0.488-0.575,0.666c-0.239,0.178-0.51,0.313-0.813,0.407
		c-0.304,0.094-0.615,0.14-0.933,0.14h-3.211v-7.068h3.155c0.29,0,0.573,0.038,0.849,0.112c0.276,0.075,0.521,0.189,0.736,0.344
		c0.215,0.155,0.386,0.349,0.512,0.582c0.126,0.234,0.189,0.514,0.189,0.842c0,0.271-0.068,0.514-0.203,0.729
		C61.329,48.369,61.168,48.566,60.981,48.743z M59.326,48.308c0.131,0,0.264-0.016,0.399-0.049c0.136-0.033,0.257-0.084,0.365-0.154
		c0.107-0.07,0.196-0.161,0.266-0.274c0.07-0.112,0.106-0.248,0.106-0.406c0-0.159-0.033-0.297-0.099-0.414
		c-0.065-0.117-0.15-0.211-0.252-0.281c-0.103-0.07-0.22-0.122-0.35-0.154c-0.131-0.032-0.262-0.049-0.393-0.049h-1.936v1.781
		H59.326z M57.433,49.304v2.272h2.034c0.15,0,0.304-0.023,0.463-0.07c0.159-0.047,0.299-0.114,0.421-0.203
		c0.122-0.089,0.222-0.203,0.301-0.344c0.079-0.14,0.119-0.304,0.119-0.491v-0.057c0-0.159-0.037-0.306-0.112-0.442
		c-0.075-0.135-0.173-0.252-0.295-0.35c-0.122-0.098-0.257-0.175-0.406-0.232c-0.149-0.056-0.3-0.084-0.449-0.084H57.433z"/>
	<path fill="#95AEBA" d="M63.014,54.184v-2.608c0.411,0,0.734-0.133,0.967-0.399c0.234-0.267,0.407-0.605,0.519-1.017
		c0.112-0.411,0.182-0.87,0.21-1.374c0.028-0.505,0.042-0.996,0.042-1.473v-1.767h4.838v6.03h0.785v2.608h-0.996v-1.57h-5.357v1.57
		H63.014z M65.118,51.576h3.352v-5.048h-2.595v0.785c0,0.599-0.012,1.117-0.035,1.557c-0.023,0.439-0.066,0.823-0.127,1.15
		c-0.06,0.328-0.14,0.615-0.238,0.863S65.258,51.361,65.118,51.576z"/>
	<path fill="#95AEBA" d="M76.646,48.743c0.365,0.215,0.621,0.467,0.771,0.757c0.149,0.29,0.224,0.594,0.224,0.911v0.057
		c0,0.355-0.072,0.666-0.217,0.932c-0.145,0.266-0.337,0.488-0.575,0.666c-0.239,0.178-0.51,0.313-0.813,0.407
		c-0.304,0.094-0.615,0.14-0.933,0.14h-3.211v-7.068h3.155c0.29,0,0.573,0.038,0.849,0.112c0.276,0.075,0.521,0.189,0.736,0.344
		c0.215,0.155,0.386,0.349,0.512,0.582c0.126,0.234,0.189,0.514,0.189,0.842c0,0.271-0.068,0.514-0.203,0.729
		C76.994,48.369,76.832,48.566,76.646,48.743z M74.991,48.308c0.131,0,0.264-0.016,0.399-0.049c0.136-0.033,0.257-0.084,0.365-0.154
		c0.107-0.07,0.196-0.161,0.266-0.274c0.07-0.112,0.106-0.248,0.106-0.406c0-0.159-0.033-0.297-0.099-0.414
		c-0.065-0.117-0.15-0.211-0.252-0.281s-0.22-0.122-0.35-0.154c-0.131-0.032-0.262-0.049-0.393-0.049h-1.936v1.781H74.991z
		 M73.098,49.304v2.272h2.034c0.15,0,0.304-0.023,0.463-0.07c0.159-0.047,0.299-0.114,0.421-0.203
		c0.122-0.089,0.222-0.203,0.301-0.344c0.079-0.14,0.119-0.304,0.119-0.491v-0.057c0-0.159-0.037-0.306-0.112-0.442
		c-0.075-0.135-0.173-0.252-0.295-0.35c-0.122-0.098-0.257-0.175-0.406-0.232c-0.15-0.056-0.3-0.084-0.449-0.084H73.098z"/>
	<path fill="#95AEBA" d="M84.499,51.772c-0.328,0.346-0.697,0.601-1.108,0.765c-0.411,0.163-0.855,0.245-1.332,0.245
		c-0.458,0-0.897-0.084-1.318-0.253c-0.421-0.168-0.795-0.421-1.122-0.757c-0.356-0.355-0.587-0.766-0.694-1.234
		c-0.108-0.468-0.161-0.954-0.161-1.459v-0.266c0.009-0.486,0.07-0.921,0.183-1.305c0.112-0.383,0.35-0.766,0.715-1.15
		c0.327-0.337,0.692-0.584,1.094-0.744c0.402-0.159,0.837-0.238,1.304-0.238c0.467,0,0.9,0.077,1.298,0.231
		c0.397,0.154,0.76,0.395,1.086,0.722c0.337,0.346,0.58,0.72,0.729,1.122c0.15,0.402,0.224,0.846,0.224,1.332v0.294
		c0,0.504-0.056,0.982-0.168,1.43C85.116,50.959,84.873,51.38,84.499,51.772z M84.274,49.08v-0.281c0-0.682-0.177-1.239-0.532-1.668
		c-0.187-0.225-0.421-0.4-0.701-0.526c-0.281-0.126-0.603-0.189-0.968-0.189c-0.356,0-0.669,0.059-0.94,0.175
		c-0.271,0.117-0.5,0.283-0.687,0.498c-0.374,0.43-0.561,1.005-0.561,1.725v0.322c0,0.393,0.042,0.757,0.126,1.094
		c0.084,0.337,0.229,0.627,0.435,0.87c0.168,0.205,0.386,0.365,0.652,0.476c0.266,0.112,0.591,0.168,0.975,0.168
		c0.355,0,0.659-0.051,0.911-0.154c0.253-0.103,0.467-0.248,0.645-0.435c0.243-0.243,0.411-0.547,0.505-0.912
		C84.227,49.879,84.274,49.491,84.274,49.08z"/>
	<path fill="#95AEBA" d="M91.315,52.614v-5.301l-3.296,5.301H86.7v-6.886l1.206-0.35v5.567l3.31-5.399h1.304v7.068H91.315z
		 M89.772,44.41c-0.262,0-0.51-0.037-0.743-0.112c-0.234-0.075-0.44-0.184-0.617-0.329c-0.177-0.145-0.318-0.325-0.421-0.54
		c-0.103-0.215-0.154-0.458-0.154-0.729h0.715c0,0.159,0.035,0.294,0.105,0.406c0.07,0.112,0.164,0.206,0.281,0.281
		c0.117,0.075,0.248,0.131,0.393,0.168c0.145,0.037,0.292,0.056,0.442,0.056c0.14,0,0.283-0.016,0.428-0.049
		c0.145-0.033,0.276-0.086,0.393-0.162c0.117-0.075,0.212-0.17,0.288-0.287c0.075-0.117,0.112-0.255,0.112-0.414h0.716
		c0,0.28-0.054,0.526-0.162,0.736c-0.107,0.21-0.25,0.388-0.427,0.533c-0.178,0.145-0.383,0.254-0.617,0.329
		C90.267,44.373,90.024,44.41,89.772,44.41z"/>
	<path fill="#95AEBA" d="M99.379,45.378v7.236h-1.206v-3.31h-3.31v3.31h-1.206v-6.9l1.206-0.336v2.931h3.31v-2.595L99.379,45.378z"
		/>
	<path fill="#95AEBA" d="M102.015,49.388c0,0.823,0.189,1.422,0.568,1.795c0.379,0.374,0.951,0.561,1.718,0.561
		c0.374,0,0.692-0.077,0.954-0.231c0.262-0.155,0.495-0.367,0.701-0.639l1.066,0.435c-0.272,0.458-0.65,0.818-1.136,1.08
		c-0.486,0.261-1.037,0.393-1.655,0.393c-0.627,0-1.157-0.087-1.591-0.26c-0.435-0.173-0.788-0.416-1.059-0.729
		c-0.271-0.313-0.467-0.692-0.589-1.136c-0.122-0.444-0.182-0.937-0.182-1.479v-0.155c0-0.233,0.005-0.46,0.014-0.68
		c0.009-0.219,0.037-0.437,0.084-0.652c0.046-0.215,0.121-0.428,0.224-0.639c0.103-0.21,0.248-0.418,0.435-0.624
		c0.318-0.356,0.696-0.619,1.136-0.793c0.439-0.173,0.893-0.259,1.36-0.259c0.524,0,0.989,0.084,1.396,0.252
		c0.406,0.168,0.748,0.402,1.024,0.701c0.276,0.299,0.483,0.655,0.624,1.065c0.14,0.412,0.211,0.865,0.211,1.36v0.631H102.015z
		 M102.015,48.407h4.095V48.28c0-0.234-0.047-0.463-0.14-0.687c-0.094-0.225-0.229-0.423-0.407-0.596
		c-0.178-0.173-0.393-0.313-0.645-0.421c-0.252-0.107-0.538-0.161-0.855-0.161c-0.299,0-0.575,0.051-0.827,0.154
		c-0.252,0.103-0.47,0.241-0.652,0.414c-0.182,0.173-0.322,0.372-0.421,0.596c-0.098,0.224-0.147,0.458-0.147,0.701V48.407z"/>
</g>
<g>
	<g>
		<circle fill="#01B4BD" cx="117.757" cy="20.81" r="16.777"/>
	</g>
	<g>
		<circle fill="#01B4BD" cx="164.084" cy="22.155" r="14.403"/>
	</g>
	<g>
		<circle fill="#01B4BD" cx="145.874" cy="21.664" r="20.48"/>
	</g>
	<g>
		<circle fill="#01B4BD" cx="181.445" cy="23.313" r="15.561"/>
	</g>
	<g>
		<path fill="#2E3E53" d="M0.551,10.749h7.615c3.15,0,5.653,1.019,7.51,3.055c1.856,2.037,2.784,4.51,2.784,7.419
			c0,2.93-0.923,5.423-2.769,7.479c-1.846,2.057-4.354,3.085-7.525,3.085H0.551V10.749z M4.042,28.597h4.063
			c2.107,0,3.777-0.707,5.011-2.122c1.234-1.415,1.851-3.155,1.851-5.222c0-2.066-0.617-3.807-1.851-5.222
			c-1.234-1.415-2.895-2.122-4.981-2.122H4.042V28.597z"/>
		<path fill="#2E3E53" d="M36.278,24.474c0,2.388-0.763,4.249-2.287,5.583c-1.525,1.335-3.321,2.002-5.388,2.002
			c-2.067,0-3.858-0.667-5.373-2.002c-1.515-1.334-2.273-3.195-2.273-5.583c0-2.368,0.742-4.209,2.227-5.523
			c1.485-1.314,3.251-1.991,5.297-2.031c1.344-0.02,2.593,0.236,3.747,0.768c1.154,0.532,2.117,1.389,2.889,2.573
			C35.891,21.445,36.278,22.849,36.278,24.474z M24.208,24.474c0,1.485,0.441,2.644,1.324,3.476c0.883,0.833,1.926,1.239,3.13,1.219
			c1.184-0.02,2.202-0.441,3.055-1.264c0.853-0.823,1.279-1.966,1.279-3.431c0-1.485-0.451-2.643-1.354-3.476
			c-0.903-0.833-1.956-1.229-3.16-1.189c-1.184,0.041-2.193,0.466-3.025,1.279C24.625,21.9,24.208,23.029,24.208,24.474z"/>
		<path fill="#2E3E53" d="M49.581,17.281h3.281v10.354c0,0.923,0.09,1.52,0.271,1.791c0.181,0.271,0.602,0.367,1.264,0.286
			l0.03,2.137c-0.482,0.08-0.883,0.14-1.204,0.18c-0.321,0.04-0.712,0.045-1.174,0.015c-0.462-0.03-0.828-0.131-1.098-0.301
			c-0.271-0.17-0.512-0.446-0.722-0.827c-0.211-0.381-0.316-0.873-0.316-1.475c-0.883,1.726-2.558,2.588-5.026,2.588
			c-1.886,0-3.261-0.576-4.123-1.731c-0.863-1.154-1.294-2.694-1.294-4.62v-8.397h3.311v8.397c-0.02,1.144,0.256,2.052,0.828,2.724
			c0.572,0.673,1.339,1.008,2.303,1.008c1.063,0,1.941-0.351,2.633-1.053c0.692-0.702,1.039-1.625,1.039-2.769V17.281z"/>
		<path fill="#2E3E53" d="M57.526,31.036V9.786h3.281v8.368c1.384-0.722,2.779-1.084,4.184-1.084c1.946,0,3.586,0.703,4.921,2.107
			c1.334,1.405,2.002,3.241,2.002,5.508c0,2.609-0.778,4.525-2.333,5.749c-1.555,1.224-3.536,1.826-5.944,1.806
			C61.549,32.199,59.513,31.798,57.526,31.036z M60.747,20.983v8.097c1.124,0.321,2.197,0.482,3.22,0.482
			c1.404-0.02,2.533-0.421,3.386-1.204c0.853-0.783,1.279-2.006,1.279-3.672c0-1.445-0.391-2.578-1.174-3.401
			c-0.783-0.823-1.776-1.254-2.98-1.294C63.155,19.949,61.91,20.28,60.747,20.983z"/>
		<path fill="#2E3E53" d="M75.133,9.756h3.251v16.825c0,1.224,0.215,2.042,0.647,2.453c0.431,0.411,1.259,0.517,2.483,0.316
			l0.121,2.528c-2.308,0.381-3.968,0.185-4.981-0.587c-1.013-0.772-1.52-2.333-1.52-4.68V9.756z"/>
		<path fill="#2E3E53" d="M90.574,16.949c2.508,0,4.324,0.752,5.448,2.257c1.124,1.505,1.445,3.481,0.963,5.929H86.27
			c0,1.284,0.446,2.308,1.339,3.07c0.893,0.763,2.022,1.144,3.386,1.144c1.926,0.101,3.682-0.2,5.267-0.903l0.421,2.438
			c-1.846,0.823-3.672,1.234-5.477,1.234c-2.429,0.041-4.415-0.662-5.96-2.107c-1.545-1.445-2.277-3.371-2.197-5.779
			c0.04-2.307,0.782-4.098,2.227-5.373C86.721,17.587,88.487,16.949,90.574,16.949z M90.544,19.478
			c-2.368,0-3.772,1.114-4.214,3.341h8.006c0.04-1.043-0.306-1.861-1.039-2.453C92.565,19.774,91.647,19.478,90.544,19.478z"/>
		<path fill="#FFFFFF" d="M107.338,21.284c0-3.291,1.039-5.914,3.115-7.871c2.077-1.956,4.61-2.934,7.6-2.934
			c1.424,0,2.773,0.251,4.048,0.752c1.274,0.502,2.413,1.294,3.416,2.378c1.003,1.083,1.686,2.388,2.047,3.913h-3.371
			c-1.024-2.528-3.081-3.812-6.17-3.852c-2.147,0-3.878,0.707-5.192,2.122s-1.972,3.246-1.972,5.493
			c0,2.127,0.667,3.913,2.002,5.357c1.334,1.445,3.055,2.167,5.162,2.167c1.485,0,2.784-0.361,3.897-1.083
			c1.114-0.722,1.901-1.766,2.363-3.13h3.401c-0.502,2.428-1.661,4.269-3.476,5.523c-1.816,1.254-3.878,1.881-6.185,1.881
			c-2.99,0-5.519-0.968-7.585-2.904C108.371,27.158,107.338,24.554,107.338,21.284z"/>
		<path fill="#FFFFFF" d="M130.814,9.756h3.251v16.825c0,1.224,0.215,2.042,0.647,2.453c0.431,0.411,1.259,0.517,2.483,0.316
			l0.12,2.528c-2.308,0.381-3.968,0.185-4.981-0.587c-1.013-0.772-1.52-2.333-1.52-4.68V9.756z"/>
		<path fill="#FFFFFF" d="M146.255,16.949c2.508,0,4.324,0.752,5.448,2.257c1.124,1.505,1.445,3.481,0.963,5.929h-10.715
			c0,1.284,0.446,2.308,1.339,3.07c0.893,0.763,2.022,1.144,3.386,1.144c1.926,0.101,3.682-0.2,5.268-0.903l0.421,2.438
			c-1.846,0.823-3.672,1.234-5.478,1.234c-2.429,0.041-4.415-0.662-5.96-2.107c-1.545-1.445-2.277-3.371-2.197-5.779
			c0.04-2.307,0.782-4.098,2.227-5.373C142.402,17.587,144.168,16.949,146.255,16.949z M146.225,19.478
			c-2.368,0-3.772,1.114-4.214,3.341h8.006c0.04-1.043-0.306-1.861-1.039-2.453C148.246,19.774,147.329,19.478,146.225,19.478z"/>
		<path fill="#FFFFFF" d="M165.638,29.35c-0.462,0.903-1.184,1.58-2.167,2.032c-0.984,0.451-2.037,0.677-3.161,0.677
			c-1.404,0-2.624-0.411-3.657-1.234c-1.034-0.822-1.55-1.916-1.55-3.281c-0.041-1.665,0.467-2.934,1.52-3.808
			c1.053-0.873,2.423-1.309,4.109-1.309c1.585,0,3.02,0.361,4.304,1.084v-1.445c0-0.883-0.346-1.545-1.038-1.987
			c-0.693-0.441-1.516-0.652-2.469-0.632c-0.953,0.02-1.871,0.12-2.754,0.301c-0.883,0.181-1.576,0.401-2.077,0.662l-0.482-2.348
			c1.485-0.762,3.27-1.144,5.358-1.144c1.966,0,3.566,0.406,4.8,1.219c1.234,0.813,1.851,2.152,1.851,4.018v5.719
			c0,0.462,0.005,0.778,0.015,0.948c0.01,0.171,0.06,0.381,0.15,0.632c0.091,0.252,0.241,0.407,0.452,0.467
			c0.211,0.06,0.506,0.071,0.888,0.03l0.06,1.866c-0.782,0.12-1.475,0.18-2.077,0.18c-0.602,0-1.094-0.215-1.475-0.647
			C165.859,30.921,165.658,30.253,165.638,29.35z M165.036,26.822v-1.204c-1.184-0.702-2.438-1.033-3.762-0.993
			c-0.843,0.02-1.545,0.271-2.107,0.753c-0.562,0.481-0.843,1.144-0.843,1.986c0,0.682,0.261,1.204,0.782,1.565
			c0.522,0.361,1.144,0.542,1.867,0.542c0.963,0,1.84-0.226,2.633-0.677C164.399,28.342,164.875,27.685,165.036,26.822z"/>
		<path fill="#FFFFFF" d="M186.918,31.788h-3.311V23.27c0.02-1.103-0.291-1.986-0.933-2.649c-0.643-0.662-1.465-1.003-2.468-1.023
			c-1.044,0-1.917,0.366-2.619,1.099c-0.702,0.733-1.053,1.681-1.053,2.844v8.247h-3.311V21.494c0-0.923-0.08-1.515-0.241-1.776
			c-0.161-0.26-0.592-0.371-1.294-0.331V17.25c0.742-0.1,1.449-0.17,2.122-0.211c0.672-0.04,1.244,0.146,1.716,0.557
			c0.471,0.411,0.707,1.049,0.707,1.911c0.381-0.863,1.033-1.5,1.957-1.911c0.923-0.411,1.916-0.617,2.98-0.617
			c1.885,0,3.315,0.577,4.289,1.73c0.973,1.154,1.46,2.674,1.46,4.56V31.788z"/>
	</g>
	<g>
		<circle fill="#01B4BD" cx="195.543" cy="7.506" r="3.707"/>
	</g>
	<g>
		<path fill="#FFFFFF" d="M150.759,9.465c-0.224,0-0.449-0.086-0.62-0.257c-4.009-4.01-7.993-0.164-8.161,0.002
			c-0.344,0.34-0.898,0.338-1.239-0.004c-0.341-0.343-0.341-0.895,0.001-1.237c0.054-0.054,1.343-1.329,3.279-1.974
			c1.842-0.614,4.614-0.77,7.358,1.974c0.342,0.342,0.342,0.897,0,1.239C151.207,9.38,150.983,9.465,150.759,9.465z"/>
	</g>
</g>
</svg>
