<?xml version="1.0" encoding="UTF-8"?>
<!DOCTYPE svg PUBLIC "-//W3C//DTD SVG 1.1//EN" "http://www.w3.org/Graphics/SVG/1.1/DTD/svg11.dtd">
<!-- Creator: CorelDRAW 2020 (64-Bit) -->
<svg xmlns="http://www.w3.org/2000/svg" xml:space="preserve" width="210mm" height="297mm" version="1.1" style="shape-rendering:geometricPrecision; text-rendering:geometricPrecision; image-rendering:optimizeQuality; fill-rule:evenodd; clip-rule:evenodd"
viewBox="0 0 21000 29700"
 xmlns:xlink="http://www.w3.org/1999/xlink"
 xmlns:xodm="http://www.corel.com/coreldraw/odm/2003">
 <defs>
  <style type="text/css">
   <![CDATA[
    .fil0 {fill:#0FB4BD;fill-rule:nonzero}
   ]]>
  </style>
 </defs>
 <g id="Слой_x0020_1">
  <metadata id="CorelCorpID_0Corel-Layer"/>
  <g id="_2249730339440">
   <path class="fil0" d="M12221.48 14850.53c0,954.7 -773.91,1728.61 -1728.61,1728.61 -954.7,0 -1728.61,-773.91 -1728.61,-1728.61 0,-954.7 773.91,-1728.61 1728.61,-1728.61 954.7,0 1728.61,773.91 1728.61,1728.61zm0 0z"/>
   <path class="fil0" d="M14535.48 11792.11c-83.1,-225.17 -215.66,-428.98 -387.92,-596.28 -167.29,-172.25 -370.97,-304.82 -596.28,-387.92 -182.73,-70.97 -457.23,-155.44 -962.84,-178.46 -546.94,-24.94 -710.93,-30.32 -2095.58,-30.32 -1384.79,0 -1548.78,5.24 -2095.58,30.18 -505.6,23.15 -780.25,107.62 -962.84,178.59 -225.31,83.1 -429.12,215.66 -596.28,387.92 -172.25,167.29 -304.82,370.97 -388.06,596.28 -70.97,182.73 -155.44,457.37 -178.46,962.97 -24.94,546.81 -30.32,710.79 -30.32,2095.58 0,1384.65 5.37,1548.64 30.32,2095.58 23.01,505.6 107.49,780.11 178.46,962.84 83.23,225.31 215.66,428.98 387.92,596.28 167.29,172.25 370.97,304.82 596.28,387.92 182.73,71.11 457.37,155.58 962.97,178.59 546.81,24.94 710.65,30.18 2095.44,30.18 1384.93,0 1548.91,-5.24 2095.58,-30.18 505.6,-23.01 780.25,-107.49 962.97,-178.59 452.27,-174.46 809.74,-531.92 984.19,-984.19 70.97,-182.73 155.44,-457.23 178.59,-962.84 24.94,-546.94 30.18,-710.93 30.18,-2095.58 0,-1384.79 -5.24,-1548.78 -30.18,-2095.58 -23.01,-505.6 -107.49,-780.25 -178.59,-962.97l0.03 0zm-4042.61 5721.34c-1470.78,0 -2663.06,-1192.14 -2663.06,-2662.92 0,-1470.78 1192.28,-2662.92 2663.06,-2662.92 1470.64,0 2662.92,1192.14 2662.92,2662.92 0,1470.78 -1192.28,2662.92 -2662.92,2662.92zm2768.2 -4808.8c-343.68,0 -622.32,-278.64 -622.32,-622.32 0,-343.68 278.64,-622.32 622.32,-622.32 343.68,0 622.32,278.64 622.32,622.32 -0.14,343.68 -278.64,622.32 -622.32,622.32zm0 0z"/>
   <path class="fil0" d="M10492.87 5819.42c-4986.98,0 -9031.11,4044.13 -9031.11,9031.11 0,4986.98 4044.13,9031.11 9031.11,9031.11 4986.98,0 9031.11,-4044.13 9031.11,-9031.11 0,-4986.98 -4044.13,-9031.11 -9031.11,-9031.11zm5154.55 11169.14c-25.08,552.04 -112.86,928.94 -241.02,1258.84 -269.41,696.6 -820.07,1247.26 -1516.67,1516.67 -329.76,128.16 -706.8,215.8 -1258.7,241.02 -553.01,25.22 -729.67,31.28 -2138.03,31.28 -1408.49,0 -1585.02,-6.06 -2138.16,-31.28 -551.9,-25.22 -928.94,-112.86 -1258.7,-241.02 -346.16,-130.22 -659.53,-334.31 -918.6,-598.21 -263.76,-258.93 -467.84,-572.44 -598.07,-918.46 -128.16,-329.76 -215.94,-706.8 -241.02,-1258.7 -25.49,-553.14 -31.42,-729.81 -31.42,-2138.16 0,-1408.35 5.93,-1585.02 31.28,-2138.03 25.08,-552.04 112.72,-928.94 240.88,-1258.84 130.22,-346.03 334.45,-659.53 598.34,-918.46 258.93,-263.89 572.44,-467.98 918.46,-598.21 329.9,-128.16 706.8,-215.8 1258.84,-241.02 553.01,-25.22 729.67,-31.28 2138.03,-31.28 1408.36,0 1585.02,6.06 2138.03,31.42 552.04,25.08 928.94,112.72 1258.84,240.74 346.03,130.22 659.53,334.45 918.6,598.34 263.76,259.07 467.98,572.44 598.07,918.46 128.3,329.9 215.94,706.8 241.16,1258.84 25.22,553.01 31.14,729.67 31.14,2138.03 0,1408.36 -5.93,1585.02 -31.28,2138.03zm0 0z"/>
  </g>
 </g>
</svg>
