<?xml version="1.0" encoding="UTF-8"?>
<!DOCTYPE svg PUBLIC "-//W3C//DTD SVG 1.1//EN" "http://www.w3.org/Graphics/SVG/1.1/DTD/svg11.dtd">
<!-- Creator: CorelDRAW 2020 (64-Bit) -->
<svg xmlns="http://www.w3.org/2000/svg" xml:space="preserve" width="210mm" height="297mm" version="1.1" style="shape-rendering:geometricPrecision; text-rendering:geometricPrecision; image-rendering:optimizeQuality; fill-rule:evenodd; clip-rule:evenodd"
viewBox="0 0 21000 29700"
 xmlns:xlink="http://www.w3.org/1999/xlink"
 xmlns:xodm="http://www.corel.com/coreldraw/odm/2003"
 enable-background="new 0 0 24 24">
 <defs>
  <style type="text/css">
   <![CDATA[
    .fil0 {fill:#0FB4BD;fill-rule:nonzero}
   ]]>
  </style>
 </defs>
 <g id="Слой_x0020_1">
  <metadata id="CorelCorpID_0Corel-Layer"/>
  <g id="_2250828189520">
   <path class="fil0" d="M16574.89 15920.5c404.14,-3401.9 -194.17,-5549.61 -1273.39,-6521.02l0.56 -0.56c-1741.88,-1658.9 -7624.51,-1904.44 -9708.43,74.51 -935.85,968.02 -1265.48,2388.73 -1301.61,4147.54 -36.12,1759.36 -79.02,5055.15 2992.12,5949.23l2.82 0 -2.82 1365.39c0,0 -20.88,553.16 332.46,664.35 404.14,130.95 587.02,-125.87 1844.04,-1627.29 2101.98,182.32 3716.29,-235.37 3899.74,-296.33 424.46,-142.24 2826.17,-460.02 3214.51,-3755.81l0 -0.01zm-6907.1 3091.47c0,0 -1330.4,1658.9 -1744.13,2089.57 -135.47,139.98 -283.92,127 -281.66,-150.71 0,-182.32 10.16,-2266.81 10.16,-2266.81 -2603.78,-746.2 -2450.25,-3552.61 -2422.03,-5020.72 28.22,-1468.68 296.9,-2671.52 1089.38,-3481.49 1828.24,-1714.22 6985.55,-1330.96 8299.58,-95.96 1606.41,1424.09 1034.63,5447.44 1038.01,5584.6 -330.2,2751.1 -2276.4,2925.52 -2634.26,3044.61 -152.96,50.8 -1572.54,416 -3355.05,296.9l0 0.01z"/>
   <path class="fil0" d="M10403.82 10504.1c-217.3,0 -217.3,338.67 0,341.49 1686,12.98 3074.53,1188.16 3089.77,3343.76 0,227.47 333.02,224.65 330.2,-2.82l-0.57 0c-18.06,-2322.68 -1534.16,-3669.44 -3419.4,-3682.43z"/>
   <path class="fil0" d="M12621.52 13832.07c-5.08,224.65 327.38,235.36 330.2,7.9 27.66,-1280.72 -762,-2335.67 -2245.92,-2446.87 -217.31,-15.8 -239.89,325.68 -23.14,341.49 1286.93,97.65 1964.83,975.92 1938.87,2097.48l-0.01 0z"/>
   <path class="fil0" d="M12265.92 15288.89c-278.84,-161.43 -562.75,-60.96 -680.16,97.65l-245.53 317.78c-124.74,161.43 -357.86,139.98 -357.86,139.98 -1701.23,-449.86 -2156.17,-2230.11 -2156.17,-2230.11 0,0 -20.88,-241.02 134.9,-370.28l307.06 -254c153.53,-121.92 250.61,-415.43 94.26,-703.86 -417.69,-754.66 -698.22,-1014.87 -841.02,-1214.68 -150.14,-187.96 -375.92,-230.29 -610.73,-103.29l-5.07 0c-488.24,285.61 -1022.77,820.14 -851.75,1370.47 291.82,580.25 828.04,2429.92 2537.18,3827.49 803.19,660.96 2074.32,1338.3 2613.93,1494.65l5.08 7.9c531.71,177.24 1048.74,-378.18 1324.75,-881.1l0 -3.95c122.48,-243.28 81.84,-473.57 -97.08,-624.28 -317.22,-309.32 -795.87,-650.8 -1171.79,-870.37z"/>
   <path class="fil0" d="M10938.35 12652.94c542.43,31.61 805.46,314.96 833.68,896.9 10.16,227.47 340.36,211.67 330.2,-15.8 -36.12,-759.74 -432.36,-1183.08 -1145.82,-1222.59 -217.31,-12.98 -237.63,328.51 -18.06,341.49z"/>
  </g>
 </g>
</svg>
